<svg xmlns="http://www.w3.org/2000/svg" viewBox="0 0 32 32" fill="none">
  <rect width="32" height="32" rx="8" fill="#0f766e"/>
  <path fill="#fff" d="M8 20v-1.5c0-.8.6-1.5 1.4-1.6l1.1-.2.6-2.4c.3-1.2 1.3-2.1 2.5-2.3h5.8c1.2.2 2.2 1.1 2.5 2.3l.6 2.4 1.1.2c.8.1 1.4.8 1.4 1.6V20h-1.2c-.6 0-1-.5-1-1v-1H9.2v1c0 .5-.4 1-1 1H8Z"/>
  <circle cx="10.5" cy="21" r="1.2" fill="#ccfbf1"/>
  <circle cx="21.5" cy="21" r="1.2" fill="#ccfbf1"/>
  <path stroke="#99f6e4" stroke-width="1.2" stroke-linecap="round" d="M11 13h10"/>
</svg>
